<svg xmlns="http://www.w3.org/2000/svg" viewBox="0 0 526.39 523.5"><defs><style>.cls-1{fill:#fff;}.cls-1,.cls-2{stroke:#000;stroke-miterlimit:10;}.cls-2{fill:#ffcc5f;}</style></defs><title>bread</title><g id="Layer_2" data-name="Layer 2"><g id="Layer_1-2" data-name="Layer 1"><path class="cls-1" d="M477.11,21.62C420.43-20.4,339.76,5.88,299,51.54c-37.19,41.7-36.14,56.05-35.36,70.46h-1c.79-14.41,1.84-28.76-35.36-70.46C186.62,5.88,106-20.4,49.28,21.62,5.79,53.88-13.09,118.57,11.22,169.82,26,200.92,52.1,217.55,68.77,225.54a22.12,22.12,0,0,1,12.6,19.93V500.94A22.06,22.06,0,0,0,103.43,523h318.8a22.06,22.06,0,0,0,22.06-22.06v-270l.1-.92c10.16-3.59,50.88-18.24,70.78-60.18C539.48,118.57,520.6,53.88,477.11,21.62Z"/><polygon class="cls-2" points="87.91 400.54 235.28 380.96 357.57 390 419.1 390 457.08 439.7 481.39 487.89 271.74 498.43 65.89 507.46 87.91 400.54"/><polygon class="cls-2" points="87.91 337.54 235.28 317.96 357.57 327 419.1 327 457.08 376.7 481.39 424.89 271.74 435.43 65.89 444.46 87.91 337.54"/><polygon class="cls-2" points="87.91 274.54 235.28 254.96 357.57 264 419.1 264 457.08 313.7 481.39 361.89 271.74 372.43 65.89 381.46 87.91 274.54"/><polygon class="cls-2" points="87.91 211.54 235.28 191.96 357.57 201 419.1 201 457.08 250.7 481.39 298.89 271.74 309.43 65.89 318.46 87.91 211.54"/><polygon class="cls-2" points="87.91 148.54 235.28 128.96 357.57 138 419.1 138 457.08 187.7 481.39 235.89 271.74 246.43 65.89 255.46 87.91 148.54"/></g></g></svg>