<svg xmlns="http://www.w3.org/2000/svg" viewBox="0 0 527.19 476.04"><defs><style>.cls-1{fill:#fff;}.cls-1,.cls-2{stroke:#000;stroke-miterlimit:10;}.cls-2{fill:#ffcc5f;}</style></defs><title>egg</title><g id="Layer_2" data-name="Layer 2"><g id="Layer_1-2" data-name="Layer 1"><path class="cls-1" d="M422.09,117.77a27.44,27.44,0,0,0-2.37,9c-3.81,51-24.44,54.78-17.7,70.51,3,7,3.47,10.32,32,19,61.51,18.73,66.65,22.05,71,26,18,16.38,25.24,46.21,20,70-8,36.16-39.42,34.37-58,78-14.47,34-1.23,48.79-18,67-15.45,16.79-38.89,17.45-79,18-53.84.75-89.75,1.25-108-22-20.15-25.66,3.06-52.46-20-83-12.85-17-21.91-11.14-57-34-46.09-30-42.1-47.74-73-59-37.72-13.73-55,8.53-80-7C5.2,253.6-7.65,207.42,6,175.29c20.19-47.44,95-56.59,131-61,62.62-7.65,79.47,10,106-8,42-28.48,23.5-88.85,59-103,24.41-9.72,64,6.55,79,39C391.35,64.55,431.84,95.77,422.09,117.77Z"/><ellipse class="cls-2" cx="318.52" cy="269.29" rx="83.5" ry="71"/></g></g></svg>