<svg xmlns="http://www.w3.org/2000/svg" viewBox="0 0 632.7 208.5"><defs><style>.cls-1{fill:#fff;}.cls-1,.cls-2,.cls-3{stroke:#000;stroke-miterlimit:10;}.cls-2{fill:#ffcc5f;}.cls-3{fill:none;}</style></defs><title>sweets</title><g id="Layer_2" data-name="Layer 2"><g id="Layer_1-2" data-name="Layer 1"><polygon class="cls-1" points="528.16 208 115.16 208 76.16 87 568.16 87 528.16 208"/><path class="cls-2" d="M132.16,146.76c-23.64,13.83-46.32,14.39-65,14.62-33,.41-54.35.67-63-14.62-10.26-18.11,3.76-46.67,9-57.33,19.43-39.57,53.56-56.3,74-66.32,37.88-18.57,71.3-20.35,95-21.36,30.43-1.3,43.36,2.79,73,5.62C324.55,14,331.59-1,400.16.63c42.66,1,92.15,2.19,146,30.35,26.4,13.8,88,39.54,86,70.82-1.47,23.31-37.79,47.44-70,46.09-36.4-1.53-44.31-34.61-93-39.35-18.32-1.78-32.23-3.13-48,4.5-15.41,7.46-23.26,19-39,18-7.75-.49-7.05-3.36-21-6.75-6-1.45-19.42-4.59-35-2.25-15.13,2.27-13.84,6.94-28,9-5,.72-20.84,2.8-37-5.62-11.17-5.83-10-10.17-21-16.87-2.89-1.76-21.51-12.75-42-7.87-9.46,2.26-11.22,6-41,28.11C143,139.3,135.93,144.56,132.16,146.76Z"/><line class="cls-3" x1="321.16" y1="22.5" x2="321.16" y2="45.5"/><line class="cls-3" x1="348.03" y1="22.5" x2="371.16" y2="45"/><line class="cls-3" x1="296.29" y1="22.5" x2="273.16" y2="45"/></g></g></svg>